<svg width="109" height="25" viewBox="0 0 109 25" fill="none" xmlns="http://www.w3.org/2000/svg">
<path d="M97.351 0.146553C91.042 0.146553 85.9268 5.24024 85.9268 11.5251C85.9268 17.8099 91.0409 22.9036 97.351 22.9036C103.661 22.9036 108.775 17.8099 108.775 11.5251C108.775 5.24024 103.661 0.146553 97.351 0.146553V0.146553ZM103.07 11.5273C103.07 14.6748 100.508 17.2266 97.3476 17.2266C94.1876 17.2266 91.6254 14.6748 91.6254 11.5273C91.6254 8.37988 94.1876 5.82802 97.3476 5.82802C100.508 5.82802 103.07 8.37988 103.07 11.5273V11.5273Z" fill="#F9B000"/>
<path d="M97.351 0.146553C91.042 0.146553 85.9268 5.24024 85.9268 11.5251C85.9268 17.4854 90.528 22.375 96.3868 22.8624C93.3141 20.8659 91.2884 17.4073 91.2884 13.4791C91.2884 12.4988 91.416 11.5463 91.6501 10.6429V10.6284C91.7352 10.3183 92.033 9.43609 92.089 9.30225C93.7531 5.18224 97.7978 2.27682 102.529 2.27682C103.086 2.27682 103.635 2.31921 104.172 2.39616C102.268 0.983046 99.9086 0.146553 97.3521 0.146553H97.351Z" fill="url(#paint0_linear_0_1)"/>
<path d="M104.462 2.62034C104.355 2.54339 104.252 2.46754 104.153 2.39393C103.623 2.31921 103.08 2.27794 102.529 2.27794C97.9142 2.27794 93.9546 5.04394 92.2167 9.00223C93.1517 7.12179 95.0968 5.82802 97.3476 5.82802C100.508 5.82802 103.07 8.37988 103.07 11.5273C103.07 14.6748 100.508 17.2266 97.3476 17.2266C94.8628 17.2266 92.7486 15.6484 91.958 13.4435C93.0554 17.6527 96.8919 20.7656 101.46 20.7656C102.576 20.7656 103.701 20.5748 104.7 20.2347C107.192 18.1479 108.775 15.0205 108.775 11.524C108.775 8.02744 107.09 4.70377 104.463 2.61923L104.462 2.62034Z" fill="url(#paint1_linear_0_1)"/>
<path d="M104.7 20.2358C103.695 20.5815 102.578 20.7656 101.452 20.7656C96.9041 20.7656 93.0923 17.6806 91.977 13.4992C91.7497 12.8847 91.6243 12.2199 91.6243 11.5262C91.6243 11.0689 91.6803 10.625 91.7822 10.199C91.369 11.5173 91.2883 12.5478 91.2883 13.4769C91.2883 15.5637 91.8594 17.5166 92.8549 19.1885C93.9098 20.9585 96.557 24.5064 102.513 24.6502C104.425 24.6971 106.224 24.1985 107.804 23.3598L104.7 20.2335V20.2358Z" fill="url(#paint2_linear_0_1)"/>
<path d="M74.5977 0.161053H80.873V22.8323H74.5977V0.161053Z" fill="#1C1C32"/>
<path d="M51.0986 22.8323V0.161053H61.6438C65.4679 0.161053 68.7187 3.27169 68.7187 6.90431C68.7187 8.44903 68.1163 9.86661 67.1891 10.9819C68.8106 12.2233 69.8945 14.1283 69.8945 16.1805C69.8945 19.7785 66.6796 22.8323 62.8834 22.8323H51.0986V22.8323ZM60.4053 9.01338C61.5531 9.01338 62.4736 8.13897 62.4736 7.04484C62.4736 5.9507 61.5531 5.07629 60.4053 5.07629H57.3807V9.00558H60.4053V9.01227V9.01338ZM61.5878 17.9293C62.7356 17.9293 63.6561 17.0549 63.6561 15.9607C63.6561 14.8666 62.6718 13.9922 61.5878 13.9922H57.3807V17.9215H61.5878V17.9282V17.9293Z" fill="#1C1C32"/>
<path d="M33.5132 11.4682L45.1849 0.161053L45.1782 22.8401H38.9028V14.1004L33.5132 19.5108L28.0956 14.1283V22.8401H21.8202V0.161053L33.5132 11.4682Z" fill="#1C1C32"/>
<path d="M0.225952 0.161053H16.4519V5.35958H6.50133V8.77359H13.6692V13.7892H6.50133V17.6828H16.4519V22.8256H0.225952V0.161053Z" fill="#1C1C32"/>
<defs>
<linearGradient id="paint0_linear_0_1" x1="95.0487" y1="0.146553" x2="95.0487" y2="22.8624" gradientUnits="userSpaceOnUse">
<stop stop-color="#E8AD00"/>
<stop offset="0.16" stop-color="#F5BA00"/>
<stop offset="0.3" stop-color="#FDC300"/>
<stop offset="0.41" stop-color="#FCBD00"/>
<stop offset="0.53" stop-color="#F9AE03"/>
<stop offset="0.67" stop-color="#F59406"/>
<stop offset="0.82" stop-color="#EF710B"/>
<stop offset="0.97" stop-color="#E74412"/>
<stop offset="1" stop-color="#E63B14"/>
</linearGradient>
<linearGradient id="paint1_linear_0_1" x1="100.365" y1="20.7656" x2="100.365" y2="2.27682" gradientUnits="userSpaceOnUse">
<stop stop-color="#EC660D"/>
<stop offset="0.09" stop-color="#ED7009"/>
<stop offset="0.35" stop-color="#F18902"/>
<stop offset="0.5" stop-color="#F39200"/>
<stop offset="0.65" stop-color="#F28F00"/>
<stop offset="0.73" stop-color="#F18702"/>
<stop offset="0.81" stop-color="#EF7805"/>
<stop offset="0.87" stop-color="#ED640A"/>
<stop offset="0.93" stop-color="#E94A10"/>
<stop offset="0.98" stop-color="#E52A18"/>
<stop offset="1" stop-color="#E41F1B"/>
</linearGradient>
<linearGradient id="paint2_linear_0_1" x1="91.2883" y1="17.4285" x2="107.804" y2="17.4285" gradientUnits="userSpaceOnUse">
<stop stop-color="#801710"/>
<stop offset="0.1" stop-color="#9C1913"/>
<stop offset="0.22" stop-color="#B61B15"/>
<stop offset="0.36" stop-color="#CA1C18"/>
<stop offset="0.51" stop-color="#D91E19"/>
<stop offset="0.69" stop-color="#E11E1A"/>
<stop offset="1" stop-color="#E41F1B"/>
</linearGradient>
</defs>
</svg>
