<svg xmlns="http://www.w3.org/2000/svg" xmlns:xlink="http://www.w3.org/1999/xlink" width="16" height="16" viewBox="0 0 16 16">
  <defs>
    <linearGradient id="linear-gradient" x1="0.5" x2="0.5" y2="1" gradientUnits="objectBoundingBox">
      <stop offset="0" stop-color="#e89b00"/>
      <stop offset="0.169" stop-color="#f7ab00"/>
      <stop offset="0.305" stop-color="#ffb400"/>
      <stop offset="0.401" stop-color="#fdae00"/>
      <stop offset="0.521" stop-color="#fa9f01"/>
      <stop offset="0.654" stop-color="#f48503"/>
      <stop offset="0.796" stop-color="#ec6206"/>
      <stop offset="0.943" stop-color="#e23509"/>
      <stop offset="1" stop-color="#de220b"/>
    </linearGradient>
    <linearGradient id="linear-gradient-2" x1="0.5" y1="1" x2="0.5" gradientUnits="objectBoundingBox">
      <stop offset="0" stop-color="#e74e00"/>
      <stop offset="0.107" stop-color="#ea5a00"/>
      <stop offset="0.35" stop-color="#ef7300"/>
      <stop offset="0.5" stop-color="#f27c00"/>
      <stop offset="0.643" stop-color="#f17900"/>
      <stop offset="0.729" stop-color="#ef7101"/>
      <stop offset="0.799" stop-color="#ed6203"/>
      <stop offset="0.862" stop-color="#e94e06"/>
      <stop offset="0.919" stop-color="#e4340a"/>
      <stop offset="0.972" stop-color="#de140f"/>
      <stop offset="1" stop-color="#db0012"/>
    </linearGradient>
    <linearGradient id="linear-gradient-3" y1="0.5" x2="1" y2="0.5" gradientUnits="objectBoundingBox">
      <stop offset="0" stop-color="#6b0c0d"/>
      <stop offset="0.025" stop-color="#730b0d"/>
      <stop offset="0.134" stop-color="#93070e"/>
      <stop offset="0.252" stop-color="#ad040f"/>
      <stop offset="0.381" stop-color="#c10210"/>
      <stop offset="0.527" stop-color="#d00111"/>
      <stop offset="0.705" stop-color="#d80011"/>
      <stop offset="1" stop-color="#db0012"/>
    </linearGradient>
  </defs>
  <g id="Group_2020" data-name="Group 2020" transform="translate(-7699 -15904)">
    <rect id="Rectangle_1311" data-name="Rectangle 1311" width="16" height="16" transform="translate(7699 15904)" fill="none"/>
    <g id="Q" transform="translate(7700.502 15905)">
      <g id="Group_1445" data-name="Group 1445">
        <path id="Path_4108" data-name="Path 4108" d="M916.72,144.771a6.5,6.5,0,1,0,6.5,6.5A6.5,6.5,0,0,0,916.72,144.771Zm3.253,6.5a3.255,3.255,0,1,1-3.255-3.255A3.255,3.255,0,0,1,919.973,151.27Z" transform="translate(-910.222 -144.771)" fill="#fd9e00"/>
        <path id="Path_4109" data-name="Path 4109" d="M916.72,144.771a6.5,6.5,0,0,0-.548,12.972,6.386,6.386,0,0,1-2.9-5.358,6.49,6.49,0,0,1,.205-1.619v-.008c.048-.177.217-.681.25-.757a6.4,6.4,0,0,1,5.937-4.012,6.562,6.562,0,0,1,.934.068A6.469,6.469,0,0,0,916.72,144.771Z" transform="translate(-910.222 -144.771)" fill="url(#linear-gradient)"/>
        <path id="Path_4110" data-name="Path 4110" d="M971.186,164.069l-.176-.13a6.589,6.589,0,0,0-.924-.066,6.4,6.4,0,0,0-5.865,3.84,3.255,3.255,0,1,1-.148,2.537,5.588,5.588,0,0,0,5.4,4.181,5.786,5.786,0,0,0,1.843-.3,6.5,6.5,0,0,0-.135-10.059Z" transform="translate(-960.644 -162.656)" fill="url(#linear-gradient-2)"/>
        <path id="Path_4111" data-name="Path 4111" d="M965.728,240.643a5.713,5.713,0,0,1-1.848.3,5.579,5.579,0,0,1-5.389-4.149,3.26,3.26,0,0,1-.111-1.884,5.96,5.96,0,0,0-.281,1.872,6.367,6.367,0,0,0,.891,3.261,6.213,6.213,0,0,0,5.494,3.119,6.065,6.065,0,0,0,3.009-.737Z" transform="translate(-955.051 -229.172)" fill="url(#linear-gradient-3)"/>
      </g>
    </g>
  </g>
</svg>
